<svg xmlns="http://www.w3.org/2000/svg" viewBox="0 0 800 300" width="800" height="300" role="img" aria-labelledby="ttl dsc"><title id="ttl">Vikelinje og sperreomrade sett ovenfra</title><desc id="dsc">Vikelinje er en rekke hvite trekanter som viser hvor vikeplikten inntrer. Sperreomrade er et skravert felt avgrenset av heltrukken linje, og det ma ikke kjores paa.</desc><rect width="800" height="300" rx="12" fill="#262624"/>
<text x="400" y="30" fill="#a3a39d" font-family="system-ui,-apple-system,Segoe UI,Roboto,sans-serif" font-size="13" font-weight="500" text-anchor="middle">Tverrgående og avgrenset oppmerking</text>
<rect x="40" y="54" width="300" height="196" rx="6" fill="#3f3f3c"/><rect x="56" y="62" width="4" height="180" fill="#f6f6f3" opacity=".8"/><rect x="320" y="62" width="4" height="180" fill="#f6f6f3" opacity=".8"/>
<rect x="460" y="54" width="300" height="196" rx="6" fill="#3f3f3c"/><rect x="476" y="62" width="4" height="180" fill="#f6f6f3" opacity=".8"/><rect x="740" y="62" width="4" height="180" fill="#f6f6f3" opacity=".8"/>
<path d="M66 150 l23 0 l-11.5 21 z" fill="#f6f6f3"/>
<path d="M101 150 l23 0 l-11.5 21 z" fill="#f6f6f3"/>
<path d="M136 150 l23 0 l-11.5 21 z" fill="#f6f6f3"/>
<path d="M171 150 l23 0 l-11.5 21 z" fill="#f6f6f3"/>
<path d="M206 150 l23 0 l-11.5 21 z" fill="#f6f6f3"/>
<path d="M241 150 l23 0 l-11.5 21 z" fill="#f6f6f3"/>
<path d="M276 150 l23 0 l-11.5 21 z" fill="#f6f6f3"/>
<text x="190" y="138" fill="#a3a39d" font-family="system-ui,-apple-system,Segoe UI,Roboto,sans-serif" font-size="12" font-weight="500" text-anchor="middle">vikeplikten inntrer her</text>
<path d="M190 205 l8 16 h-16 z" fill="#eaeae6" opacity=".85"/>
<rect x="566" y="72" width="88" height="160" fill="none" stroke="#f6f6f3" stroke-width="4"/>
<line x1="568" y1="93" x2="652" y2="76" stroke="#f6f6f3" stroke-width="3" opacity=".7"/>
<line x1="568" y1="113" x2="652" y2="96" stroke="#f6f6f3" stroke-width="3" opacity=".7"/>
<line x1="568" y1="133" x2="652" y2="116" stroke="#f6f6f3" stroke-width="3" opacity=".7"/>
<line x1="568" y1="153" x2="652" y2="136" stroke="#f6f6f3" stroke-width="3" opacity=".7"/>
<line x1="568" y1="173" x2="652" y2="156" stroke="#f6f6f3" stroke-width="3" opacity=".7"/>
<line x1="568" y1="193" x2="652" y2="176" stroke="#f6f6f3" stroke-width="3" opacity=".7"/>
<line x1="568" y1="213" x2="652" y2="196" stroke="#f6f6f3" stroke-width="3" opacity=".7"/>
<line x1="568" y1="233" x2="652" y2="216" stroke="#f6f6f3" stroke-width="3" opacity=".7"/>
<path d="M512 141 l8 16 h-16 z" fill="#eaeae6" opacity=".85"/>
<path d="M708 163 l8 -16 h-16 z" fill="#eaeae6" opacity=".85"/>
<rect x="64" y="64" width="50" height="21" rx="10" fill="#ffffff" opacity=".13"/><text x="89" y="79" fill="#eaeae6" font-family="system-ui,-apple-system,Segoe UI,Roboto,sans-serif" font-size="12.5" text-anchor="middle">1022</text>
<rect x="484" y="64" width="50" height="21" rx="10" fill="#ffffff" opacity=".13"/><text x="509" y="79" fill="#eaeae6" font-family="system-ui,-apple-system,Segoe UI,Roboto,sans-serif" font-size="12.5" text-anchor="middle">1014</text>
<text x="190" y="278" fill="#eaeae6" font-family="system-ui,-apple-system,Segoe UI,Roboto,sans-serif" font-size="15" font-weight="500" text-anchor="middle">Vikelinje — «haitenner»</text>
<text x="610" y="278" fill="#eaeae6" font-family="system-ui,-apple-system,Segoe UI,Roboto,sans-serif" font-size="15" font-weight="500" text-anchor="middle">Sperreområde — kjør aldri på det</text>
</svg>