<?xml version="1.0" encoding="UTF-8" standalone="no"?>
<!-- Created with Inkscape (http://www.inkscape.org/) -->
<svg
   xmlns:svg="http://www.w3.org/2000/svg"
   xmlns="http://www.w3.org/2000/svg"
   version="1.0"
   width="284.1875"
   height="284.125"
   id="svg2"
   xml:space="preserve"><defs
     id="defs5"><clipPath
       id="clipPath19"><path
         d="M 0.496094,0 L 2272.8,0 L 2272.8,2272.31 L 0.496094,2272.31 L 0.496094,0 z"
         id="path21" /></clipPath></defs><g
     transform="matrix(1.25,0,0,-1.25,0,284.125)"
     id="g11"><g
       transform="scale(0.1,0.1)"
       id="g13"><g
         id="g15"><g
           clip-path="url(#clipPath19)"
           id="g17"><path
             d="M 2271.73,1135.07 C 2271.73,1760.03 1760.53,2271.23 1135.57,2271.23 C 512.766,2271.23 1.56641,1760.03 1.56641,1135.07 C 1.56641,512.281 512.766,1.07031 1135.57,1.07031 C 1760.53,1.07031 2271.73,512.281 2271.73,1135.07"
             id="path23"
             style="fill:#e23828;fill-opacity:1;fill-rule:nonzero;stroke:none" /><path
             d="M 2271.73,1135.07 C 2271.73,1760.03 1760.53,2271.23 1135.57,2271.23 C 512.766,2271.23 1.56641,1760.03 1.56641,1135.07 C 1.56641,512.281 512.766,1.07031 1135.57,1.07031 C 1760.53,1.07031 2271.73,512.281 2271.73,1135.07 z"
             id="path25"
             style="fill:none;stroke:#e23828;stroke-width:2.1500001;stroke-linecap:butt;stroke-linejoin:miter;stroke-miterlimit:4;stroke-dasharray:none;stroke-opacity:1" /><path
             d="M 1987.32,1135.07 C 1987.32,1603.79 1604.29,1986.84 1135.57,1986.84 C 669.008,1986.84 285.965,1603.8 285.965,1135.07 C 285.965,668.52 669.008,285.469 1135.57,285.469 C 1604.29,285.469 1987.32,668.52 1987.32,1135.07"
             id="path27"
             style="fill:#ffffff;fill-opacity:1;fill-rule:nonzero;stroke:none" /><path
             d="M 1987.32,1135.07 C 1987.32,1603.79 1604.29,1986.84 1135.57,1986.84 C 669.008,1986.84 285.965,1603.8 285.965,1135.07 C 285.965,668.52 669.008,285.469 1135.57,285.469 C 1604.29,285.469 1987.32,668.52 1987.32,1135.07 z"
             id="path29"
             style="fill:none;stroke:#e23828;stroke-width:2.1500001;stroke-linecap:butt;stroke-linejoin:miter;stroke-miterlimit:4;stroke-dasharray:none;stroke-opacity:1" /><path
             d="M 1800.12,910.43 L 1800.12,967.309 L 1717.32,967.309 L 1717.32,910.43 L 1725.96,887.391 C 1737.48,881.641 1749.01,878.762 1760.53,878.762 C 1771.32,878.762 1782.85,881.641 1794.37,887.391 L 1800.12,910.43"
             id="path31"
             style="fill:#000000;fill-opacity:1;fill-rule:nonzero;stroke:none" /><path
             d="M 1800.12,910.43 L 1800.12,967.309 L 1717.32,967.309 L 1717.32,910.43 L 1725.96,887.391 C 1737.48,881.641 1749.01,878.762 1760.53,878.762 C 1771.32,878.762 1782.85,881.641 1794.37,887.391 L 1800.12,910.43 z"
             id="path33"
             style="fill:none;stroke:#000000;stroke-width:2.1500001;stroke-linecap:butt;stroke-linejoin:miter;stroke-miterlimit:4;stroke-dasharray:none;stroke-opacity:1" /><path
             d="M 1263.01,967.309 L 1263.01,910.43 L 1268.77,887.391 C 1280.3,881.641 1291.8,878.762 1302.61,878.762 C 1314.12,878.762 1325.66,881.641 1337.17,887.391 L 1345.8,910.43 L 1345.8,967.309 L 1263.01,967.309"
             id="path35"
             style="fill:#000000;fill-opacity:1;fill-rule:nonzero;stroke:none" /><path
             d="M 1263.01,967.309 L 1263.01,910.43 L 1268.77,887.391 C 1280.3,881.641 1291.8,878.762 1302.61,878.762 C 1314.12,878.762 1325.66,881.641 1337.17,887.391 L 1345.8,910.43 L 1345.8,967.309 L 1263.01,967.309 z"
             id="path37"
             style="fill:none;stroke:#000000;stroke-width:2.1500001;stroke-linecap:butt;stroke-linejoin:miter;stroke-miterlimit:4;stroke-dasharray:none;stroke-opacity:1" /><path
             d="M 467.406,967.309 L 467.406,910.43 L 476.047,887.391 C 484.688,881.641 496.207,878.762 509.887,878.762 C 521.406,878.762 532.926,881.641 541.566,887.391 L 550.207,910.43 L 550.207,967.309 L 467.406,967.309"
             id="path39"
             style="fill:#e23828;fill-opacity:1;fill-rule:nonzero;stroke:none" /><path
             d="M 467.406,967.309 L 467.406,910.43 L 476.047,887.391 C 484.688,881.641 496.207,878.762 509.887,878.762 C 521.406,878.762 532.926,881.641 541.566,887.391 L 550.207,910.43 L 550.207,967.309 L 467.406,967.309 z"
             id="path41"
             style="fill:none;stroke:#e23828;stroke-width:2.1500001;stroke-linecap:butt;stroke-linejoin:miter;stroke-miterlimit:4;stroke-dasharray:none;stroke-opacity:1" /><path
             d="M 1001.64,1186.2 L 936.145,1390.68 C 873.496,1401.48 805.816,1410.12 737.418,1410.12 C 669.016,1410.12 604.215,1401.48 535.816,1390.68 L 473.176,1186.2 C 450.137,1174.68 436.457,1154.51 430.695,1129.32 L 430.695,1035 L 1044.14,1035 L 1044.14,1129.32 C 1038.38,1154.51 1024.71,1174.68 1001.66,1186.2"
             id="path43"
             style="fill:#e23828;fill-opacity:1;fill-rule:nonzero;stroke:none" /><path
             d="M 1001.64,1186.2 L 936.145,1390.68 C 873.496,1401.48 805.816,1410.12 737.418,1410.12 C 669.016,1410.12 604.215,1401.48 535.816,1390.68 L 473.176,1186.2 C 450.137,1174.68 436.457,1154.51 430.695,1129.32 L 430.695,1035 L 1044.14,1035 L 1044.14,1129.32 C 1038.38,1154.51 1024.71,1174.68 1001.66,1186.2 L 1001.64,1186.2 z"
             id="path45"
             style="fill:none;stroke:#e23828;stroke-width:2.1500001;stroke-linecap:butt;stroke-linejoin:miter;stroke-miterlimit:4;stroke-dasharray:none;stroke-opacity:1" /><path
             d="M 433.566,1015.56 L 430.688,1012.68 L 430.688,970.199 L 433.566,967.309 L 1041.26,967.309 L 1044.12,970.199 L 1044.12,1012.68 L 1041.26,1015.56 L 433.566,1015.56"
             id="path47"
             style="fill:#e23828;fill-opacity:1;fill-rule:nonzero;stroke:none" /><path
             d="M 433.566,1015.56 L 430.688,1012.68 L 430.688,970.199 L 433.566,967.309 L 1041.26,967.309 L 1044.12,970.199 L 1044.12,1012.68 L 1041.26,1015.56 L 433.566,1015.56 z"
             id="path49"
             style="fill:none;stroke:#e23828;stroke-width:2.1500001;stroke-linecap:butt;stroke-linejoin:miter;stroke-miterlimit:4;stroke-dasharray:none;stroke-opacity:1" /><path
             d="M 1007.41,910.43 L 1007.41,967.309 L 925.336,967.309 L 925.336,910.43 L 930.375,887.391 C 941.895,881.641 953.418,878.762 964.945,878.762 C 976.457,878.762 987.258,881.641 998.777,887.391 L 1007.42,910.43"
             id="path51"
             style="fill:#e23828;fill-opacity:1;fill-rule:nonzero;stroke:none" /><path
             d="M 1007.41,910.43 L 1007.41,967.309 L 925.336,967.309 L 925.336,910.43 L 930.375,887.391 C 941.895,881.641 953.418,878.762 964.945,878.762 C 976.457,878.762 987.258,881.641 998.777,887.391 L 1007.42,910.43 L 1007.41,910.43 z"
             id="path53"
             style="fill:none;stroke:#e23828;stroke-width:2.1500001;stroke-linecap:butt;stroke-linejoin:miter;stroke-miterlimit:4;stroke-dasharray:none;stroke-opacity:1" /><path
             d="M 1797.25,1186.2 L 1731.73,1390.68 C 1666.21,1401.48 1601.41,1410.12 1533.01,1410.12 C 1464.61,1410.12 1396.93,1401.48 1331.41,1390.68 L 1265.89,1186.2 C 1245.73,1174.68 1232.05,1154.51 1226.29,1129.32 L 1226.29,1035 L 1836.85,1035 L 1836.85,1129.32 C 1831.09,1154.51 1817.41,1174.68 1797.25,1186.2"
             id="path55"
             style="fill:#000000;fill-opacity:1;fill-rule:nonzero;stroke:none" /><path
             d="M 1797.25,1186.2 L 1731.73,1390.68 C 1666.21,1401.48 1601.41,1410.12 1533.01,1410.12 C 1464.61,1410.12 1396.93,1401.48 1331.41,1390.68 L 1265.89,1186.2 C 1245.73,1174.68 1232.05,1154.51 1226.29,1129.32 L 1226.29,1035 L 1836.85,1035 L 1836.85,1129.32 C 1831.09,1154.51 1817.41,1174.68 1797.25,1186.2 z"
             id="path57"
             style="fill:none;stroke:#000000;stroke-width:2.1500001;stroke-linecap:butt;stroke-linejoin:miter;stroke-miterlimit:4;stroke-dasharray:none;stroke-opacity:1" /><path
             d="M 1229.17,1015.56 L 1226.29,1012.68 L 1226.29,970.199 L 1229.17,967.309 L 1833.96,967.309 L 1836.85,970.199 L 1836.85,1012.68 L 1833.96,1015.56 L 1229.17,1015.56"
             id="path59"
             style="fill:#000000;fill-opacity:1;fill-rule:nonzero;stroke:none" /><path
             d="M 1229.17,1015.56 L 1226.29,1012.68 L 1226.29,970.199 L 1229.17,967.309 L 1833.96,967.309 L 1836.85,970.199 L 1836.85,1012.68 L 1833.96,1015.56 L 1229.17,1015.56 z"
             id="path61"
             style="fill:none;stroke:#000000;stroke-width:2.1500001;stroke-linecap:butt;stroke-linejoin:miter;stroke-miterlimit:4;stroke-dasharray:none;stroke-opacity:1" /><path
             d="M 1737.48,1199.87 C 1671.96,1225.8 1598.53,1240.2 1527.25,1240.2 C 1458.85,1240.2 1391.17,1228.67 1325.66,1205.64 L 1365.25,1333.79 C 1422.12,1342.43 1479.01,1345.31 1533.01,1345.31 C 1587.01,1345.31 1643.89,1342.43 1700.77,1333.79 L 1737.48,1199.87"
             id="path63"
             style="fill:#ffffff;fill-opacity:1;fill-rule:nonzero;stroke:none" /><path
             d="M 1737.48,1199.87 C 1671.96,1225.8 1598.53,1240.2 1527.25,1240.2 C 1458.85,1240.2 1391.17,1228.67 1325.66,1205.64 L 1365.25,1333.79 C 1422.12,1342.43 1479.01,1345.31 1533.01,1345.31 C 1587.01,1345.31 1643.89,1342.43 1700.77,1333.79 L 1737.48,1199.87 z"
             id="path65"
             style="fill:none;stroke:#ffffff;stroke-width:2.1500001;stroke-linecap:butt;stroke-linejoin:miter;stroke-miterlimit:4;stroke-dasharray:none;stroke-opacity:1" /><path
             d="M 527.168,1081.07 L 527.168,1151.64 C 521.406,1154.51 512.766,1157.39 507.008,1157.39 C 499.086,1157.39 493.324,1154.51 487.555,1151.64 L 487.555,1081.07 C 493.316,1075.31 499.074,1075.31 507.008,1075.31 C 512.758,1075.31 521.406,1075.31 527.168,1081.07"
             id="path67"
             style="fill:#ffffff;fill-opacity:1;fill-rule:nonzero;stroke:none" /><path
             d="M 527.168,1081.07 L 527.168,1151.64 C 521.406,1154.51 512.766,1157.39 507.008,1157.39 C 499.086,1157.39 493.324,1154.51 487.555,1151.64 L 487.555,1081.07 C 493.316,1075.31 499.074,1075.31 507.008,1075.31 C 512.758,1075.31 521.406,1075.31 527.168,1081.07 z"
             id="path69"
             style="fill:none;stroke:#ffffff;stroke-width:2.1500001;stroke-linecap:butt;stroke-linejoin:miter;stroke-miterlimit:4;stroke-dasharray:none;stroke-opacity:1" /><path
             d="M 947.645,1081.07 C 953.406,1075.31 962.047,1075.31 967.805,1075.31 C 973.566,1075.31 981.496,1075.31 987.246,1081.07 L 987.246,1151.64 C 981.496,1154.51 973.566,1157.39 967.805,1157.39 C 962.047,1157.39 953.406,1154.51 947.645,1151.64 L 947.645,1081.07"
             id="path71"
             style="fill:#ffffff;fill-opacity:1;fill-rule:nonzero;stroke:none" /><path
             d="M 947.645,1081.07 C 953.406,1075.31 962.047,1075.31 967.805,1075.31 C 973.566,1075.31 981.496,1075.31 987.246,1081.07 L 987.246,1151.64 C 981.496,1154.51 973.566,1157.39 967.805,1157.39 C 962.047,1157.39 953.406,1154.51 947.645,1151.64 L 947.645,1081.07 z"
             id="path73"
             style="fill:none;stroke:#ffffff;stroke-width:2.1500001;stroke-linecap:butt;stroke-linejoin:miter;stroke-miterlimit:4;stroke-dasharray:none;stroke-opacity:1" /><path
             d="M 944.766,1199.87 C 876.375,1225.8 802.926,1240.2 731.645,1240.2 C 663.246,1240.2 595.566,1228.67 532.926,1205.64 L 569.637,1333.79 C 626.516,1342.43 683.395,1345.31 740.277,1345.31 C 794.277,1345.31 848.277,1342.43 905.168,1333.79 L 944.758,1199.87"
             id="path75"
             style="fill:#ffffff;fill-opacity:1;fill-rule:nonzero;stroke:none" /><path
             d="M 944.766,1199.87 C 876.375,1225.8 802.926,1240.2 731.645,1240.2 C 663.246,1240.2 595.566,1228.67 532.926,1205.64 L 569.637,1333.79 C 626.516,1342.43 683.395,1345.31 740.277,1345.31 C 794.277,1345.31 848.277,1342.43 905.168,1333.79 L 944.758,1199.87 L 944.766,1199.87 z"
             id="path77"
             style="fill:none;stroke:#ffffff;stroke-width:2.1500001;stroke-linecap:butt;stroke-linejoin:miter;stroke-miterlimit:4;stroke-dasharray:none;stroke-opacity:1" /><path
             d="M 1743.25,1081.07 C 1749.01,1075.31 1754.77,1075.31 1763.41,1075.31 C 1769.17,1075.31 1777.09,1075.31 1782.85,1081.07 L 1782.85,1151.64 C 1777.09,1154.51 1769.17,1157.39 1763.41,1157.39 C 1754.77,1157.39 1749.01,1154.51 1743.25,1151.64 L 1743.25,1081.07"
             id="path79"
             style="fill:#ffffff;fill-opacity:1;fill-rule:nonzero;stroke:none" /><path
             d="M 1743.25,1081.07 C 1749.01,1075.31 1754.77,1075.31 1763.41,1075.31 C 1769.17,1075.31 1777.09,1075.31 1782.85,1081.07 L 1782.85,1151.64 C 1777.09,1154.51 1769.17,1157.39 1763.41,1157.39 C 1754.77,1157.39 1749.01,1154.51 1743.25,1151.64 L 1743.25,1081.07 z"
             id="path81"
             style="fill:none;stroke:#ffffff;stroke-width:2.1500001;stroke-linecap:butt;stroke-linejoin:miter;stroke-miterlimit:4;stroke-dasharray:none;stroke-opacity:1" /><path
             d="M 1319.89,1081.07 L 1319.89,1151.64 C 1314.12,1154.51 1308.37,1157.39 1299.73,1157.39 C 1294.7,1157.39 1288.93,1154.51 1280.3,1151.64 L 1280.3,1081.07 C 1288.93,1075.31 1294.7,1075.31 1299.73,1075.31 C 1308.37,1075.31 1314.12,1075.31 1319.89,1081.07"
             id="path83"
             style="fill:#ffffff;fill-opacity:1;fill-rule:nonzero;stroke:none" /><path
             d="M 1319.89,1081.07 L 1319.89,1151.64 C 1314.12,1154.51 1308.37,1157.39 1299.73,1157.39 C 1294.7,1157.39 1288.93,1154.51 1280.3,1151.64 L 1280.3,1081.07 C 1288.93,1075.31 1294.7,1075.31 1299.73,1075.31 C 1308.37,1075.31 1314.12,1075.31 1319.89,1081.07 z"
             id="path85"
             style="fill:none;stroke:#ffffff;stroke-width:2.1500001;stroke-linecap:butt;stroke-linejoin:miter;stroke-miterlimit:4;stroke-dasharray:none;stroke-opacity:1" /></g></g></g></g></svg>